<svg id="Слой_1" data-name="Слой 1" xmlns="http://www.w3.org/2000/svg" viewBox="0 0 38 26.6"><defs><style>.cls-1{fill:#28bd8b;}</style></defs><title>card-icon-success</title><path class="cls-1" d="M35.15,0H2.85A2.86,2.86,0,0,0,0,2.85v20.9A2.86,2.86,0,0,0,2.85,26.6h32.3A2.86,2.86,0,0,0,38,23.75V2.85A2.86,2.86,0,0,0,35.15,0ZM2.85,1.9h32.3a1,1,0,0,1,1,1V3.8H1.9V2.85A1,1,0,0,1,2.85,1.9ZM36.1,5.7v5.7H1.9V5.7Zm-1,19H2.85a1,1,0,0,1-1-.95V13.3H36.1V23.75A1,1,0,0,1,35.15,24.7Z"/><path class="cls-1" d="M32.3,20.9h1.9v1.9H32.3Z"/><path class="cls-1" d="M24.7,20.9h5.7v1.9H24.7Z"/><path class="cls-1" d="M19,20.9h3.8v1.9H19Z"/></svg>