<svg width="38" height="27" viewBox="0 0 38 27" fill="none" xmlns="http://www.w3.org/2000/svg">
<path d="M35.15 0H2.85C1.2787 0 0 1.2787 0 2.85V23.75C0 25.3213 1.2787 26.6 2.85 26.6H35.15C36.7213 26.6 38 25.3213 38 23.75V2.85C38 1.2787 36.7213 0 35.15 0ZM2.85 1.9H35.15C35.6744 1.9 36.1 2.3256 36.1 2.85V3.8H1.9V2.85C1.9 2.3256 2.3256 1.9 2.85 1.9ZM36.1 5.7V11.4H1.9V5.7H36.1ZM35.15 24.7H2.85C2.3256 24.7 1.9 24.2744 1.9 23.75V13.3H36.1V23.75C36.1 24.2744 35.6744 24.7 35.15 24.7Z" fill="#EA5A5A"/>
<path d="M32.3 20.8999H34.2V22.7999H32.3V20.8999Z" fill="#EA5A5A"/>
<path d="M24.7 20.8999H30.4V22.7999H24.7V20.8999Z" fill="#EA5A5A"/>
<path d="M19 20.8999H22.8V22.7999H19V20.8999Z" fill="#EA5A5A"/>
</svg>
