<svg width="36" height="35" viewBox="0 0 36 35" fill="none" xmlns="http://www.w3.org/2000/svg">
<path fill-rule="evenodd" clip-rule="evenodd" d="M17.1 9H9.90001C8.9059 9 8.10001 9.80589 8.10001 10.8V21.6C7.60296 21.6 7.20001 22.0029 7.20001 22.5C7.20001 22.997 7.60296 23.4 8.10001 23.4V27.9C8.10001 28.397 8.50296 28.8 9.00001 28.8C9.49707 28.8 9.90001 28.397 9.90001 27.9V23.4H15.3C15.7971 23.4 16.2 22.997 16.2 22.5C16.2 22.0029 15.7971 21.6 15.3 21.6H9.90001V19.8V18V10.8H17.1C18.0941 10.8 18.9 13.4059 18.9 14.4C18.9 15.3941 18.0941 18 17.1 18H10.8V19.8H17.1C19.0882 19.8 20.7 16.3882 20.7 14.4C20.7 12.4118 19.0882 9 17.1 9Z" fill="#35C0DC"/>
<path d="M19.8005 29.6986C19.5701 29.6986 19.3397 29.6104 19.1633 29.4358L16.4633 26.7358C16.1123 26.3848 16.1123 25.8142 16.4633 25.4632C16.8143 25.1122 17.3849 25.1122 17.7359 25.4632L19.7987 27.526L27.2615 20.0632C27.6125 19.7122 28.1831 19.7122 28.5341 20.0632C28.8851 20.4142 28.8851 20.9848 28.5341 21.3358L20.4341 29.4358C20.2577 29.6122 20.0273 29.6986 19.7969 29.6986H19.8005Z" fill="#35C0DC"/>
<path d="M8.99998 3.59998V5.39998H27V3.59998H8.99998Z" fill="#35C0DC"/>
<path d="M32.4 34.2H3.59998V8.99998H5.39998V32.5H30.6V8.99998H32.4V34.2Z" fill="#35C0DC"/>
<path d="M30.6 7.19998H32.4V4.59998C32.4 4.04769 31.9523 3.59998 31.4 3.59998H28.8V5.39998H30.6V7.19998Z" fill="#35C0DC"/>
<path d="M34.2 7.2H36V2C36 0.89543 35.1046 0 34 0H28.8V1.8H33.2C33.7523 1.8 34.2 2.24772 34.2 2.8V7.2Z" fill="#35C0DC"/>
<path d="M5.39998 7.19998H3.59998V4.59998C3.59998 4.04769 4.04769 3.59998 4.59998 3.59998H7.19998V5.39998H5.39998V7.19998Z" fill="#35C0DC"/>
<path d="M1.8 7.2H0V2C0 0.89543 0.895431 0 2 0H7.2V1.8H2.8C2.24772 1.8 1.8 2.24772 1.8 2.8V7.2Z" fill="#35C0DC"/>
</svg>
