<svg width="35" height="35" viewBox="0 0 35 35" fill="none" xmlns="http://www.w3.org/2000/svg">
<path d="M8.2635 34.9064C8.01675 35.0289 7.728 35.0289 7.48125 34.9064L4.37325 33.3524L1.26525 34.9064C0.994 35.0411 0.672 35.0271 0.41475 34.8679C0.1575 34.7086 0 34.4269 0 34.1241V2.62413C0 2.29338 0.18725 1.98887 0.483 1.84187L3.983 0.091875C4.22975 -0.030625 4.5185 -0.030625 4.76525 0.091875L7.87325 1.64588L10.9812 0.091875C11.228 -0.030625 11.5167 -0.030625 11.7635 0.091875L14.8715 1.64588L17.9795 0.091875C18.2262 -0.030625 18.515 -0.030625 18.7618 0.091875L21.8698 1.64588L24.9778 0.091875C25.2245 -0.030625 25.5133 -0.030625 25.76 0.091875L29.26 1.84187C29.5558 1.99062 29.743 2.29338 29.743 2.62413V10.5H27.9913V3.16488L25.3662 1.85238L22.2582 3.40638C22.0115 3.52888 21.7227 3.52888 21.476 3.40638L18.368 1.85238L15.26 3.40638C15.0133 3.52888 14.7245 3.52888 14.4778 3.40638L11.3697 1.85238L8.26175 3.40638C8.015 3.52888 7.72625 3.52888 7.4795 3.40638L4.3715 1.85238L1.7465 3.16488V32.7084L3.9795 31.5919C4.22625 31.4694 4.515 31.4694 4.76175 31.5919L7.86975 33.1459L9.625 32.2682V34.2256L8.2635 34.9064Z" fill="#8251F1"/>
<path d="M20.1182 6.99915H9.61816C9.13516 6.99915 8.74316 6.60715 8.74316 6.12415C8.74316 5.64115 9.13516 5.24915 9.61816 5.24915H20.1182C20.6012 5.24915 20.9932 5.64115 20.9932 6.12415C20.9932 6.60715 20.6012 6.99915 20.1182 6.99915Z" fill="#8251F1"/>
<path d="M23.6182 10.4991H6.11816C5.63516 10.4991 5.24316 10.1071 5.24316 9.62415C5.24316 9.14115 5.63516 8.74915 6.11816 8.74915H23.6182C24.1012 8.74915 24.4932 9.14115 24.4932 9.62415C24.4932 10.1071 24.1012 10.4991 23.6182 10.4991Z" fill="#8251F1"/>
<path d="M15.0341 14H7.71591C7.32073 14 7 13.608 7 13.125C7 12.642 7.32073 12.25 7.71591 12.25H15.0341C15.4293 12.25 15.75 12.642 15.75 13.125C15.75 13.608 15.4293 14 15.0341 14Z" fill="#8251F1"/>
<path d="M32.375 17.5H29.75V14.875C29.75 13.4277 28.5723 12.25 27.125 12.25H20.125C18.6778 12.25 17.5 13.4277 17.5 14.875V17.5H14.875C13.4277 17.5 12.25 18.6778 12.25 20.125V28.875C12.25 30.3223 13.4277 31.5 14.875 31.5H17.5V32.375C17.5 33.8223 18.6778 35 20.125 35H27.125C28.5723 35 29.75 33.8223 29.75 32.375V31.5H32.375C33.8223 31.5 35 30.3223 35 28.875V20.125C35 18.6778 33.8223 17.5 32.375 17.5ZM19.25 14.875C19.25 14.392 19.642 14 20.125 14H27.125C27.608 14 28 14.392 28 14.875V17.5H19.25V14.875ZM27.125 33.25H20.125C19.642 33.25 19.25 32.858 19.25 32.375V24.5H28V32.375C28 32.858 27.608 33.25 27.125 33.25ZM33.25 28.875C33.25 29.358 32.858 29.75 32.375 29.75H29.75V24.5H30.625C31.108 24.5 31.5 24.108 31.5 23.625C31.5 23.142 31.108 22.75 30.625 22.75H16.625C16.142 22.75 15.75 23.142 15.75 23.625C15.75 24.108 16.142 24.5 16.625 24.5H17.5V29.75H14.875C14.392 29.75 14 29.358 14 28.875V20.125C14 19.642 14.392 19.25 14.875 19.25H32.375C32.858 19.25 33.25 19.642 33.25 20.125V28.875Z" fill="#8251F1"/>
<path d="M25.9875 28H21.2625C21.1176 28 21 27.608 21 27.125C21 26.642 21.1176 26.25 21.2625 26.25H25.9875C26.1324 26.25 26.25 26.642 26.25 27.125C26.25 27.608 26.1324 28 25.9875 28Z" fill="#8251F1"/>
<path d="M25.9875 31.5H21.2625C21.1176 31.5 21 31.108 21 30.625C21 30.142 21.1176 29.75 21.2625 29.75H25.9875C26.1324 29.75 26.25 30.142 26.25 30.625C26.25 31.108 26.1324 31.5 25.9875 31.5Z" fill="#8251F1"/>
</svg>
