<svg width="23" height="22" viewBox="0 0 23 22" fill="none" xmlns="http://www.w3.org/2000/svg">
<path d="M21.1842 0H10.2895C9.2884 0 8.47372 0.837443 8.47372 1.86652V5.59955C8.47372 5.94299 8.74488 6.22172 9.07898 6.22172C9.41309 6.22172 9.68425 5.94299 9.68425 5.59955V1.86652C9.68425 1.52308 9.9554 1.24434 10.2895 1.24434H19.4459L14.7951 3.29378C13.9659 3.65962 13.3158 4.67251 13.3158 5.59955V17.4208H10.2895C9.9554 17.4208 9.68425 17.1421 9.68425 16.7986V13.0656C9.68425 12.7222 9.41309 12.4434 9.07898 12.4434C8.74488 12.4434 8.47372 12.7222 8.47372 13.0656V16.7986C8.47372 17.8277 9.2884 18.6652 10.2895 18.6652H13.3158V20.5317C13.3158 21.0705 13.5337 21.5284 13.915 21.786C14.1257 21.9278 14.3702 22 14.628 22C14.8375 22 15.0566 21.9527 15.272 21.8581L21.5208 19.1057C22.35 18.7398 23 17.7269 23 16.7986V1.86652C23 0.837443 22.1853 0 21.1842 0ZM21.7895 16.7986C21.7895 17.2354 21.4336 17.7891 21.0438 17.9609L14.7951 20.7133C14.6789 20.7644 14.6026 20.7606 14.5808 20.7469C14.559 20.7333 14.5264 20.6611 14.5264 20.5317V5.59955C14.5264 5.16278 14.8822 4.60905 15.272 4.43733L21.7278 1.59276C21.7677 1.67489 21.7895 1.76821 21.7895 1.86652V16.7986Z" fill="white"/>
<path d="M10.1127 8.89209L6.48116 5.15906C6.24511 4.91641 5.86137 4.91641 5.62532 5.15906C5.38926 5.40171 5.38926 5.79616 5.62532 6.03881L8.22311 8.70917H0.605263C0.271158 8.70917 0 8.9879 0 9.33134C0 9.67478 0.271158 9.95352 0.605263 9.95352H8.22311L5.62532 12.6239C5.38926 12.8665 5.38926 13.261 5.62532 13.5036C5.74395 13.6256 5.89889 13.6853 6.05384 13.6853C6.20879 13.6853 6.36374 13.6243 6.48237 13.5036L10.1139 9.7706C10.35 9.52795 10.35 9.13349 10.1139 8.89085L10.1127 8.89209Z" fill="white"/>
</svg>
