<svg width="20" height="20" viewBox="0 0 20 20" fill="none" xmlns="http://www.w3.org/2000/svg">
<path d="M3.5 17.0002C3.37 17.0002 3.242 16.9493 3.146 16.8533C3.009 16.7163 2.963 16.5112 3.03 16.3293L5.03 10.8293C5.055 10.7603 5.095 10.6982 5.146 10.6462L15.646 0.14625C15.841 -0.04875 16.158 -0.04875 16.353 0.14625L19.853 3.64625C20.048 3.84125 20.048 4.15825 19.853 4.35325L9.353 14.8532C9.301 14.9052 9.239 14.9443 9.17 14.9692L3.67 16.9692C3.614 16.9893 3.557 16.9993 3.499 16.9993L3.5 17.0002ZM5.932 11.2752L4.336 15.6642L8.725 14.0682L18.793 4.00025L16 1.20725L5.932 11.2752Z" fill="white"/>
<path d="M17.5 20.0002H1.5C0.673 20.0002 0 19.3272 0 18.5002V2.50024C0 1.67324 0.673 1.00024 1.5 1.00024H11.5C11.776 1.00024 12 1.22424 12 1.50024C12 1.77624 11.776 2.00024 11.5 2.00024H1.5C1.224 2.00024 1 2.22424 1 2.50024V18.5002C1 18.7762 1.224 19.0002 1.5 19.0002H17.5C17.776 19.0002 18 18.7762 18 18.5002V8.50024C18 8.22424 18.224 8.00024 18.5 8.00024C18.776 8.00024 19 8.22424 19 8.50024V18.5002C19 19.3272 18.327 20.0002 17.5 20.0002Z" fill="white"/>
</svg>
