<svg width="21" height="18" viewBox="0 0 21 18" fill="none" xmlns="http://www.w3.org/2000/svg">
<path d="M12.5842 6C12.8766 6 13.1139 5.776 13.1139 5.5V1.5C13.1139 0.673 12.4009 0 11.5248 0H1.99C1.11386 0 0.400867 0.673 0.400867 1.5V13.5C0.400867 14.246 0.969776 15.06 1.69548 15.353L7.16421 17.565C7.35278 17.641 7.54454 17.679 7.72782 17.679C7.95347 17.679 8.16854 17.621 8.35182 17.507C8.68447 17.3 8.87623 16.932 8.87623 16.499V14.999H11.5248C12.4009 14.999 13.1139 14.326 13.1139 13.499V9.499C13.1139 9.223 12.8766 8.999 12.5842 8.999C12.2918 8.999 12.0545 9.223 12.0545 9.499V13.499C12.0545 13.775 11.8172 13.999 11.5248 13.999H8.87623V4.499C8.87623 3.753 8.30732 2.939 7.58162 2.646L3.51133 0.999H11.5248C11.8172 0.999 12.0545 1.223 12.0545 1.499V5.499C12.0545 5.775 12.2918 5.999 12.5842 5.999V6ZM7.16421 3.566C7.50534 3.704 7.81681 4.15 7.81681 4.5V16.5C7.81681 16.604 7.78715 16.662 7.76913 16.673C7.75112 16.684 7.68332 16.687 7.58162 16.646L2.11289 14.434C1.77176 14.296 1.46029 13.851 1.46029 13.5V1.5C1.46029 1.421 1.47936 1.347 1.51432 1.28L7.16421 3.566Z" fill="white"/>
<path d="M19.8454 7.14601L16.6672 4.14601C16.4606 3.95101 16.1248 3.95101 15.9182 4.14601C15.7116 4.34101 15.7116 4.65801 15.9182 4.85301L18.1917 6.99901H11.5248C11.2324 6.99901 10.995 7.22301 10.995 7.49901C10.995 7.77501 11.2324 7.99901 11.5248 7.99901H18.1917L15.9182 10.145C15.7116 10.34 15.7116 10.657 15.9182 10.852C16.022 10.95 16.1576 10.998 16.2932 10.998C16.4288 10.998 16.5644 10.949 16.6682 10.852L19.8465 7.85201C20.0531 7.65701 20.0531 7.34001 19.8465 7.14501L19.8454 7.14601Z" fill="white"/>
</svg>
