<svg width="23" height="22" viewBox="0 0 23 22" fill="none" xmlns="http://www.w3.org/2000/svg">
<path d="M21.1842 0H10.2895C9.28838 0 8.47369 0.837443 8.47369 1.86652V5.59955C8.47369 5.94299 8.74485 6.22172 9.07896 6.22172C9.41306 6.22172 9.68422 5.94299 9.68422 5.59955V1.86652C9.68422 1.52308 9.95538 1.24434 10.2895 1.24434H19.4459L14.7951 3.29378C13.9659 3.65962 13.3158 4.67251 13.3158 5.59955V17.4208H10.2895C9.95538 17.4208 9.68422 17.1421 9.68422 16.7986V13.0656C9.68422 12.7222 9.41306 12.4434 9.07896 12.4434C8.74485 12.4434 8.47369 12.7222 8.47369 13.0656V16.7986C8.47369 17.8277 9.28838 18.6652 10.2895 18.6652H13.3158V20.5317C13.3158 21.0705 13.5337 21.5284 13.915 21.786C14.1256 21.9278 14.3702 22 14.628 22C14.8374 22 15.0565 21.9527 15.272 21.8581L21.5207 19.1057C22.35 18.7398 23 17.7269 23 16.7986V1.86652C23 0.837443 22.1853 0 21.1842 0ZM21.7895 16.7986C21.7895 17.2354 21.4336 17.7891 21.0438 17.9609L14.7951 20.7133C14.6789 20.7644 14.6026 20.7606 14.5808 20.7469C14.559 20.7333 14.5263 20.6611 14.5263 20.5317V5.59955C14.5263 5.16278 14.8822 4.60905 15.272 4.43733L21.7277 1.59276C21.7677 1.67489 21.7895 1.76821 21.7895 1.86652V16.7986Z" fill="#28BD8B"/>
<path d="M10.1127 8.89207L6.48116 5.15904C6.24511 4.91639 5.86137 4.91639 5.62532 5.15904C5.38926 5.40168 5.38926 5.79614 5.62532 6.03879L8.22311 8.70915H0.605263C0.271158 8.70915 0 8.98788 0 9.33132C0 9.67476 0.271158 9.95349 0.605263 9.95349H8.22311L5.62532 12.6239C5.38926 12.8665 5.38926 13.261 5.62532 13.5036C5.74395 13.6256 5.89889 13.6853 6.05384 13.6853C6.20879 13.6853 6.36374 13.6243 6.48237 13.5036L10.1139 9.77057C10.35 9.52793 10.35 9.13347 10.1139 8.89082L10.1127 8.89207Z" fill="#28BD8B"/>
</svg>
