<svg width="30" height="39" viewBox="0 0 30 39" fill="none" xmlns="http://www.w3.org/2000/svg">
<path d="M7 30.6683V8.33269L0 7V32H0.00293486L7 30.6683Z" fill="#2F80ED"/>
<path d="M29.4911 22.7448C29.1496 21.6141 28.6575 20.548 28.0288 19.5745C27.3952 18.5969 26.6339 17.7099 25.7636 16.9392C24.8954 16.1705 23.9163 15.5171 22.8549 15.001L22.8529 15L14.6832 20.9299H17.4127C18.9255 20.9299 20.2254 21.452 21.2758 22.4822C22.3322 23.5214 22.8678 24.8053 22.8678 26.2969C22.8678 27.8155 22.3381 29.1331 21.2937 30.2071C20.2472 31.2811 18.9482 31.827 17.4335 31.833H7.13418H0V38.998V39H17.4335L17.8335 38.998V38.99C19.4175 38.9413 20.9194 38.6072 22.3055 37.9976C23.8301 37.3254 25.1746 36.4124 26.3002 35.2827C27.4249 34.1521 28.3338 32.7946 29.002 31.2443C29.6644 29.7099 30 28.0452 30 26.2969C30.001 25.0658 29.8297 23.8715 29.4911 22.7448Z" fill="#2F80ED"/>
<path d="M22.85 14.9995L21.91 14.1899L15 20.9999L22.85 14.9995Z" fill="#1C4C8C"/>
<path d="M7 7H0L7 8.4V7Z" fill="#1C4C8C"/>
<path d="M7 31.9V30.5L0.00293486 31.5L0 31.9H7Z" fill="#1C4C8C"/>
<path d="M12 13.0182V13.8891V21H15L21.9144 14.1878L29.21 7.00012L16.9823 7.99416L12 13.0182Z" fill="#A5C7F5"/>
<path d="M18.9882 7H18.9962H29.21L29.8803 6.38965L30.001 6.27539V6.27345V0H26.3495H0.000976562V6.20997V7H7.24369H18.9882Z" fill="#2F80ED"/>
<path d="M29.21 7H18L17 8L29.21 7Z" fill="#1C4C8C"/>
</svg>
