<svg width="137" height="37" viewBox="0 0 137 37" fill="none" xmlns="http://www.w3.org/2000/svg">
<path d="M7.08268 28.2038V7.75964L0.562281 6.5398V29.4228H0.564987L7.08268 28.2038Z" fill="white"/>
<path d="M27.5153 21.0865C27.2031 20.0492 26.7534 19.0711 26.1788 18.1779C25.5997 17.2811 24.9039 16.4672 24.1085 15.7602C23.315 15.0549 22.4201 14.4555 21.45 13.982L21.4482 13.981L13.9813 19.4215H16.476C17.8587 19.4215 19.0467 19.9004 20.0068 20.8456C20.9723 21.7991 21.4618 22.9769 21.4618 24.3455C21.4618 25.7387 20.9777 26.9475 20.0231 27.9329C19.0667 28.9182 17.8795 29.4191 16.495 29.4246H0.561401V36H16.495L16.8606 35.9982V35.9909C18.3084 35.9462 19.6811 35.6396 20.9479 35.0803C22.3413 34.4636 23.5701 33.626 24.5989 32.5896C25.6269 31.5522 26.4575 30.3068 27.0683 28.8845C27.6736 27.4767 27.9804 25.9494 27.9804 24.3455C27.9813 23.216 27.8248 22.1202 27.5153 21.0865Z" fill="white"/>
<path d="M26.861 6.53981L16.4289 7.75784L15.944 8.21127L11.8549 12.2631V19.4206L13.9813 19.4215L27.4618 5.96959L26.8782 6.53981H26.861Z" fill="white"/>
<path d="M26.861 6.53981H26.8782L27.4618 5.96959L27.5708 5.86284V0H0.562595L0.562281 6.5398L26.861 6.53981Z" fill="white"/>
<path d="M41.5613 0H40.1416V35.9982H41.5613V0Z" fill="white"/>
<path d="M55.5854 5.60201V1.80401H61.3094V0.400006H54.0014V13H58.0694C60.7514 13 62.3354 11.56 62.3354 9.29201C62.3354 7.02401 60.7514 5.60201 58.0694 5.60201H55.5854ZM60.7154 9.29201C60.7154 10.768 59.7974 11.596 57.8894 11.596H55.5854V7.00601H57.8894C59.7974 7.00601 60.7154 7.79801 60.7154 9.29201Z" fill="white"/>
<path d="M75.1155 6.70001C75.1155 3.04601 73.0635 0.184006 69.4995 0.184006C65.9175 0.184006 63.8655 3.04601 63.8655 6.70001C63.8655 10.354 65.9175 13.216 69.4995 13.216C73.0635 13.216 75.1155 10.354 75.1155 6.70001ZM65.4855 6.70001C65.4855 3.58601 67.0515 1.62401 69.4995 1.62401C71.9295 1.62401 73.4955 3.58601 73.4955 6.70001C73.4955 9.81401 71.9295 11.776 69.4995 11.776C67.0515 11.776 65.4855 9.81401 65.4855 6.70001Z" fill="white"/>
<path d="M86.7718 13V0.400006H78.0238V10.264C78.0238 11.29 77.6638 11.884 76.5298 11.884C76.2418 11.884 76.0438 11.866 75.7378 11.83V13.18C75.9358 13.198 76.2598 13.216 76.4578 13.216C78.4558 13.216 79.6078 12.37 79.6078 10.372V1.80401H85.1878V13H86.7718Z" fill="white"/>
<path d="M89.6498 0.400006V13H93.7178C96.3998 13 97.9838 11.56 97.9838 9.29201C97.9838 7.02401 96.3998 5.60201 93.7178 5.60201H91.2338V0.400006H89.6498ZM96.3638 9.29201C96.3638 10.768 95.4458 11.596 93.5378 11.596H91.2338V7.00601H93.5378C95.4458 7.00601 96.3638 7.79801 96.3638 9.29201Z" fill="white"/>
<path d="M101.728 11.596V0.400006H100.144V13H112.24V0.400006H110.656V11.596H106.984V0.400006H105.4V11.596H101.728Z" fill="white"/>
<path d="M118.901 0.400006L114.041 13H115.787L116.975 9.74201H122.555L123.743 13H125.489L120.629 0.400006H118.901ZM119.765 2.05601L122.051 8.33801H117.479L119.765 2.05601Z" fill="white"/>
<path d="M127.33 4.07201C127.33 5.90801 128.356 7.02401 130.138 7.54601L126.556 13H128.374L131.776 7.74401H134.494V13H136.078V0.400006H131.884C129.112 0.400006 127.33 1.69601 127.33 4.07201ZM128.95 4.07201C128.95 2.56001 129.94 1.80401 131.992 1.80401H134.494V6.34001H131.992C129.94 6.34001 128.95 5.58401 128.95 4.07201Z" fill="white"/>
<path d="M56.8454 36H58.4294V24.804H62.3534V23.4H52.9214V24.804H56.8454V36Z" fill="white"/>
<path d="M72.7656 27.324C72.7656 24.714 70.9656 23.4 68.0676 23.4H64.1616V36H65.7456V31.248H68.0676C70.9656 31.248 72.7656 29.934 72.7656 27.324ZM71.1456 27.324C71.1456 29.052 70.1016 29.844 67.9416 29.844H65.7456V24.804H67.9416C70.1016 24.804 71.1456 25.596 71.1456 27.324Z" fill="white"/>
<path d="M85.4515 29.7C85.4515 26.046 83.3995 23.184 79.8355 23.184C76.2535 23.184 74.2015 26.046 74.2015 29.7C74.2015 33.354 76.2535 36.216 79.8355 36.216C83.3995 36.216 85.4515 33.354 85.4515 29.7ZM75.8215 29.7C75.8215 26.586 77.3875 24.624 79.8355 24.624C82.2655 24.624 83.8315 26.586 83.8315 29.7C83.8315 32.814 82.2655 34.776 79.8355 34.776C77.3875 34.776 75.8215 32.814 75.8215 29.7Z" fill="white"/>
<path d="M87.6987 36H89.2287L96.0507 25.902V36H97.5627V23.4H96.0327L89.2107 33.498V23.4H87.6987V36ZM92.6487 21.06C91.8567 21.06 91.2267 20.592 90.8667 19.512L89.7867 19.8C90.1827 21.24 91.1007 22.23 92.6487 22.23C94.1967 22.23 95.1327 21.24 95.5107 19.8L94.4307 19.512C94.0707 20.592 93.4407 21.06 92.6487 21.06Z" fill="white"/>
<path d="M102.027 23.4H100.443V36H102.027V32.562L104.205 29.808L107.967 36H109.875L105.213 28.566L109.317 23.4H107.445L102.027 30.312V23.4Z" fill="white"/>
<path d="M115.279 23.4L110.419 36H112.165L113.353 32.742H118.933L120.121 36H121.867L117.007 23.4H115.279ZM116.143 25.056L118.429 31.338H113.857L116.143 25.056Z" fill="white"/>
</svg>
