<svg width="45" height="47" viewBox="0 0 45 47" fill="none" xmlns="http://www.w3.org/2000/svg">
<path d="M22.3239 47C22.1993 47 22.0724 46.9789 21.9526 46.9389C17.6312 45.4984 12.2076 40.7094 8.13529 34.736C4.42483 29.2936 0 20.2748 0 8.22459C0 7.57602 0.526374 7.04965 1.17494 7.04965C7.78751 7.04965 18.1834 2.52377 21.673 0.19739C22.0677 -0.0657967 22.5824 -0.0657967 22.9772 0.19739C26.4667 2.52377 36.8626 7.04965 43.4752 7.04965C44.1237 7.04965 44.6501 7.57602 44.6501 8.22459C44.6501 20.2748 40.2253 29.2913 36.5148 34.736C32.4425 40.707 27.019 45.4984 22.6975 46.9389C22.5777 46.9789 22.4508 47 22.3262 47H22.3239ZM2.36398 9.36428C2.62952 20.2466 6.66897 28.4171 10.0763 33.4153C14.2332 39.5109 19.1374 43.3553 22.3239 44.5796C25.5103 43.3553 30.4145 39.5133 34.5715 33.4153C37.9788 28.4171 42.0182 20.2466 42.2838 9.36428C38.4582 9.12459 34.1955 7.80866 31.1688 6.68542C27.8367 5.45173 24.474 3.88201 22.3239 2.57077C20.1737 3.88201 16.8111 5.45173 13.4789 6.68542C10.4499 7.80631 6.18959 9.12459 2.36398 9.36428Z" fill="#28BD8B"/>
<path d="M2.36398 9.36428C2.62952 20.2466 6.66897 28.4171 10.0763 33.4153C14.2332 39.5109 19.1374 43.3553 22.3239 44.5796C25.5103 43.3553 30.4145 39.5133 34.5715 33.4153C37.9788 28.4171 42.0182 20.2466 42.2838 9.36428C38.4582 9.12459 34.1955 7.80866 31.1688 6.68542C27.8367 5.45173 24.474 3.88201 22.3239 2.57077C20.1737 3.88201 16.8111 5.45173 13.4789 6.68542C10.4499 7.80631 6.18959 9.12459 2.36398 9.36428Z" fill="#28BD8B"/>
<path d="M19.974 29.376C19.6732 29.376 19.3724 29.2608 19.1421 29.0329L14.4424 24.3331C13.9841 23.8749 13.9841 23.13 14.4424 22.6718C14.9006 22.2135 15.6455 22.2135 16.1037 22.6718L19.9716 26.5397L30.8892 15.6221C31.3474 15.1639 32.0923 15.1639 32.5506 15.6221C33.0088 16.0803 33.0088 16.8253 32.5506 17.2835L20.8011 29.0329C20.5709 29.2632 20.2701 29.376 19.9693 29.376H19.974Z" fill="white"/>
</svg>
