<svg width="45" height="47" viewBox="0 0 45 47" fill="none" xmlns="http://www.w3.org/2000/svg">
<path d="M22.3239 47C22.1993 47 22.0724 46.9789 21.9526 46.9389C17.6312 45.4984 12.2076 40.7094 8.13529 34.736C4.42483 29.2936 0 20.2748 0 8.22459C0 7.57602 0.526374 7.04965 1.17494 7.04965C7.78751 7.04965 18.1834 2.52377 21.673 0.19739C22.0677 -0.0657967 22.5824 -0.0657967 22.9772 0.19739C26.4667 2.52377 36.8626 7.04965 43.4752 7.04965C44.1237 7.04965 44.6501 7.57602 44.6501 8.22459C44.6501 20.2748 40.2253 29.2913 36.5148 34.736C32.4425 40.707 27.019 45.4984 22.6975 46.9389C22.5777 46.9789 22.4508 47 22.3262 47H22.3239ZM2.36398 9.36428C2.62952 20.2466 6.66897 28.4171 10.0763 33.4153C14.2332 39.5109 19.1374 43.3553 22.3239 44.5796C25.5103 43.3553 30.4145 39.5133 34.5715 33.4153C37.9788 28.4171 42.0182 20.2466 42.2838 9.36428C38.4582 9.12459 34.1955 7.80866 31.1688 6.68542C27.8367 5.45173 24.474 3.88201 22.3239 2.57077C20.1737 3.88201 16.8111 5.45173 13.4789 6.68542C10.4499 7.80631 6.18959 9.12459 2.36398 9.36428Z" fill="#EA5A5A"/>
<path d="M2.36398 9.36428C2.62952 20.2466 6.66897 28.4171 10.0763 33.4153C14.2332 39.5109 19.1374 43.3553 22.3239 44.5796C25.5103 43.3553 30.4145 39.5133 34.5715 33.4153C37.9788 28.4171 42.0182 20.2466 42.2838 9.36428C38.4582 9.12459 34.1955 7.80866 31.1688 6.68542C27.8367 5.45173 24.474 3.88201 22.3239 2.57077C20.1737 3.88201 16.8111 5.45173 13.4789 6.68542C10.4499 7.80631 6.18959 9.12459 2.36398 9.36428Z" fill="#EA5A5A"/>
<path d="M31.3122 28.4831L24.1286 22.3264L31.3122 16.1698C31.8057 15.7468 31.8621 15.0066 31.4391 14.5131C31.0161 14.0196 30.2759 13.9632 29.7824 14.3862L22.3215 20.7802L14.8607 14.3862C14.3672 13.9632 13.627 14.022 13.204 14.5131C12.781 15.0042 12.8398 15.7468 13.3309 16.1698L20.5145 22.3264L13.3309 28.4831C12.8374 28.9061 12.781 29.6463 13.204 30.1398C13.4366 30.41 13.7656 30.551 14.097 30.551C14.3672 30.551 14.6398 30.457 14.8607 30.269L22.3215 23.875L29.7824 30.269C30.0033 30.4594 30.2759 30.551 30.5461 30.551C30.8775 30.551 31.2065 30.4124 31.4391 30.1398C31.8621 29.6463 31.8033 28.9061 31.3122 28.4831Z" fill="white"/>
</svg>
