<svg width="20" height="14" viewBox="0 0 20 14" fill="none" xmlns="http://www.w3.org/2000/svg">
<path d="M18.5 14H1.5C0.673 14 0 13.327 0 12.5V1.5C0 0.673 0.673 0 1.5 0H18.5C19.327 0 20 0.673 20 1.5V12.5C20 13.327 19.327 14 18.5 14ZM1.5 1C1.224 1 1 1.224 1 1.5V12.5C1 12.776 1.224 13 1.5 13H18.5C18.776 13 19 12.776 19 12.5V1.5C19 1.224 18.776 1 18.5 1H1.5Z" fill="#D5E0EB"/>
<path d="M8.501 11C8.501 11 8.501 11 8.5 11H3.5C3.224 11 3 10.776 3 10.5C3 10.434 3.011 9.839 3.388 9.235C3.74 8.672 4.479 8 6 8C7.521 8 8.259 8.672 8.612 9.235C8.95 9.776 8.994 10.309 9 10.462C9.001 10.474 9.001 10.487 9.001 10.5C9.001 10.776 8.777 11 8.501 11ZM4.117 10H7.883C7.848 9.914 7.802 9.823 7.743 9.733C7.421 9.246 6.835 9 6 9C5.165 9 4.579 9.247 4.257 9.733C4.198 9.823 4.152 9.913 4.117 10Z" fill="#D5E0EB"/>
<path d="M16.5 5H11.5C11.224 5 11 4.776 11 4.5C11 4.224 11.224 4 11.5 4H16.5C16.776 4 17 4.224 17 4.5C17 4.776 16.776 5 16.5 5Z" fill="#D5E0EB"/>
<path d="M15.5 7H11.5C11.224 7 11 6.776 11 6.5C11 6.224 11.224 6 11.5 6H15.5C15.776 6 16 6.224 16 6.5C16 6.776 15.776 7 15.5 7Z" fill="#D5E0EB"/>
<path d="M15.5 9H11.5C11.224 9 11 8.776 11 8.5C11 8.224 11.224 8 11.5 8H15.5C15.776 8 16 8.224 16 8.5C16 8.776 15.776 9 15.5 9Z" fill="#D5E0EB"/>
<path d="M6 7C4.897 7 4 6.103 4 5C4 3.897 4.897 3 6 3C7.103 3 8 3.897 8 5C8 6.103 7.103 7 6 7ZM6 4C5.449 4 5 4.449 5 5C5 5.551 5.449 6 6 6C6.551 6 7 5.551 7 5C7 4.449 6.551 4 6 4Z" fill="#D5E0EB"/>
<path d="M16.5 11H11.5C11.224 11 11 10.776 11 10.5C11 10.224 11.224 10 11.5 10H16.5C16.776 10 17 10.224 17 10.5C17 10.776 16.776 11 16.5 11Z" fill="#D5E0EB"/>
</svg>
