<svg width="18" height="17" viewBox="0 0 18 17" fill="none" xmlns="http://www.w3.org/2000/svg">
<path d="M12.75 0C10.403 0 8.49979 1.90324 8.49979 4.25021C8.49979 5.16146 8.7871 6.0064 9.27588 6.69833L0.124319 15.8499C-0.0414396 16.0156 -0.0414396 16.2851 0.124319 16.4509C0.207623 16.5342 0.316428 16.575 0.425234 16.575C0.534039 16.575 0.642845 16.5333 0.726149 16.4509L1.7003 15.4767L3.09947 16.8759C3.18277 16.9592 3.29158 17 3.40038 17C3.50919 17 3.61799 16.9583 3.7013 16.8759C3.86706 16.7101 3.86706 16.4407 3.7013 16.2749L2.30213 14.8757L2.97621 14.2017L4.37538 15.6008C4.45868 15.6841 4.56749 15.7249 4.6763 15.7249C4.7851 15.7249 4.89391 15.6833 4.97721 15.6008C5.14297 15.4351 5.14297 15.1656 4.97721 14.9998L3.57804 13.6007L9.8369 7.34182C10.5977 8.0601 11.6237 8.50042 12.7526 8.50042C15.0995 8.50042 17.0028 6.59718 17.0028 4.25021C17.0028 1.90324 15.0995 0 12.7526 0H12.75ZM15.1539 6.65413C14.5113 7.29676 13.6578 7.65038 12.75 7.65038C11.8422 7.65038 10.9879 7.29676 10.3461 6.65413C9.70345 6.0115 9.34983 5.15806 9.34983 4.25021C9.34983 3.34237 9.70345 2.48807 10.3461 1.84629C10.9887 1.20366 11.8422 0.850042 12.75 0.850042C13.6578 0.850042 14.5121 1.20366 15.1539 1.84629C15.7966 2.48892 16.1502 3.34237 16.1502 4.25021C16.1502 5.15806 15.7966 6.01235 15.1539 6.65413Z" fill="#D5E0EB"/>
</svg>
