<svg width="17" height="17" viewBox="0 0 17 17" fill="none" xmlns="http://www.w3.org/2000/svg">
<path d="M8.075 9.35C5.49695 9.35 3.4 7.25305 3.4 4.675C3.4 2.09695 5.49695 0 8.075 0C10.6531 0 12.75 2.09695 12.75 4.675C12.75 7.25305 10.6531 9.35 8.075 9.35ZM8.075 0.85C5.96615 0.85 4.25 2.56615 4.25 4.675C4.25 6.78385 5.96615 8.5 8.075 8.5C10.1839 8.5 11.9 6.78385 11.9 4.675C11.9 2.56615 10.1839 0.85 8.075 0.85Z" fill="#D5E0EB"/>
<path d="M14.875 17H1.275C0.57205 17 0 16.428 0 15.725C0 15.6672 0.0119001 14.2928 1.04125 12.92C1.6405 12.121 2.46075 11.486 3.4799 11.0338C4.7243 10.4805 6.27045 10.2 8.075 10.2C9.87955 10.2 11.4257 10.4805 12.6701 11.0338C13.6892 11.4869 14.5095 12.121 15.1087 12.92C16.1381 14.2928 16.15 15.6672 16.15 15.725C16.15 16.428 15.5779 17 14.875 17ZM8.075 11.05C5.11105 11.05 2.924 11.86 1.75015 13.3926C0.8704 14.5409 0.85085 15.7148 0.85 15.7267C0.85 15.9596 1.0404 16.15 1.275 16.15H14.875C15.1096 16.15 15.3 15.9596 15.3 15.725C15.3 15.7148 15.2804 14.5409 14.3998 13.3926C13.2251 11.86 11.0381 11.05 8.075 11.05Z" fill="#D5E0EB"/>
</svg>
