<?xml version="1.0" standalone="no"?>
<!DOCTYPE svg PUBLIC "-//W3C//DTD SVG 20010904//EN"
 "http://www.w3.org/TR/2001/REC-SVG-20010904/DTD/svg10.dtd">
<svg version="1.0" xmlns="http://www.w3.org/2000/svg"
 width="568.000000pt" height="568.000000pt" viewBox="0 0 568.000000 568.000000"
 preserveAspectRatio="xMidYMid meet">
<metadata>
Created by potrace 1.11, written by Peter Selinger 2001-2013
</metadata>
<g transform="translate(0.000000,568.000000) scale(0.100000,-0.100000)"
fill="#000000" stroke="none">
<path d="M2645 5674 c-366 -37 -640 -106 -924 -231 -339 -150 -603 -332 -871
-602 -352 -353 -598 -786 -720 -1266 -126 -495 -118 -991 26 -1485 275 -943
1035 -1677 1990 -1920 254 -65 401 -83 684 -84 257 -1 340 7 557 50 417 84
802 258 1153 522 152 114 421 383 533 533 501 671 680 1501 496 2304 -192 843
-749 1541 -1524 1911 -250 119 -523 202 -801 244 -134 20 -494 35 -599 24z
m480 -215 c134 -15 289 -46 410 -80 108 -30 294 -95 307 -108 4 -3 -48 0 -115
7 -72 8 -244 15 -422 16 -341 1 -420 -7 -680 -74 -513 -131 -993 -416 -1274
-757 -232 -280 -335 -571 -317 -888 8 -129 39 -324 66 -420 l19 -68 -77 -96
c-148 -183 -289 -394 -388 -576 l-48 -89 -43 89 c-83 174 -165 377 -218 538
-82 253 -82 251 -61 374 21 128 72 317 121 449 92 250 272 561 443 764 220
262 528 506 834 661 241 122 593 226 868 258 109 12 470 13 575 0z m153 -441
c107 -150 210 -338 311 -571 28 -65 51 -123 51 -130 0 -9 -55 -12 -223 -12
-245 0 -330 -11 -562 -70 -499 -127 -1009 -427 -1462 -859 l-111 -106 -11 50
c-39 180 -39 447 -2 580 31 105 109 262 179 356 177 239 412 425 737 584 326
160 639 241 997 258 35 2 39 -1 96 -80z m357 62 c219 -19 411 -49 638 -102
l137 -31 82 -66 c436 -349 771 -905 888 -1475 64 -313 70 -682 14 -986 -72
-396 -241 -782 -486 -1107 -114 -152 -338 -377 -493 -493 -10 -8 0 12 24 45
390 543 539 886 617 1421 25 168 25 535 1 694 -32 207 -94 414 -169 565 -81
162 -231 344 -367 444 -130 96 -373 208 -556 256 -38 10 -75 23 -81 29 -6 6
-34 72 -64 146 -84 215 -225 493 -324 643 -22 33 -33 31 139 17z m-15 -980
c52 -6 98 -14 102 -18 12 -12 74 -239 103 -373 121 -572 101 -1140 -57 -1604
-61 -180 -199 -439 -305 -573 l-18 -22 -121 30 c-454 110 -907 322 -1255 585
-141 107 -376 344 -471 475 -109 152 -238 387 -238 435 0 33 273 295 470 451
211 167 540 359 778 453 345 138 699 194 1012 161z m448 -104 c202 -78 332
-158 443 -273 123 -127 197 -251 262 -440 71 -202 99 -390 99 -653 -1 -392
-88 -772 -250 -1092 l-48 -93 -44 -7 c-107 -16 -324 -20 -485 -9 -176 12 -350
33 -360 43 -3 3 19 44 50 91 130 200 257 520 310 779 46 232 58 357 59 618 0
339 -30 591 -109 916 -19 78 -35 144 -35 148 0 11 20 6 108 -28z m-2816 -1229
c329 -644 1045 -1157 1973 -1413 l60 -17 -55 -49 c-75 -67 -261 -190 -341
-227 -114 -52 -210 -73 -361 -78 -151 -6 -246 4 -403 43 -497 124 -1044 530
-1350 1002 l-47 73 76 152 c41 84 112 208 157 277 81 125 230 329 239 330 3 0
26 -42 52 -93z m-912 -357 c123 -270 270 -521 402 -687 81 -102 251 -277 358
-368 359 -304 768 -505 1155 -566 127 -21 362 -16 475 8 248 54 466 178 694
393 l101 96 80 -13 c215 -35 339 -45 573 -50 138 -3 252 -8 252 -12 0 -10
-190 -272 -268 -369 -78 -98 -238 -277 -293 -328 -63 -59 -364 -154 -614 -194
-648 -105 -1302 36 -1848 400 -170 113 -271 195 -401 326 -365 364 -607 819
-711 1335 -23 117 -31 178 -21 168 2 -2 32 -65 66 -139z"/>
</g>
</svg>
